<svg viewBox="0 0 900 480" xmlns="http://www.w3.org/2000/svg" font-family="'Segoe UI', Arial, sans-serif">
  <defs>
    <linearGradient id="bg6c" x1="0" y1="0" x2="0" y2="1">
      <stop offset="0" stop-color="#0b1026"/>
      <stop offset="1" stop-color="#161b3d"/>
    </linearGradient>
  </defs>
  <rect width="900" height="480" rx="24" fill="url(#bg6c)"/>
  <text x="450" y="56" text-anchor="middle" fill="#ffffff" font-size="32" font-weight="800">📈 Дата баяжуулах = тоглоом томрох</text>

  <!-- small data -->
  <rect x="60" y="110" width="280" height="280" rx="18" fill="#1b2348" stroke="#5f68a8" stroke-width="2"/>
  <text x="200" y="150" text-anchor="middle" fill="#cdd3f5" font-size="20" font-weight="700">data.json — өчигдөр</text>
  <rect x="95" y="175" width="210" height="44" rx="9" fill="#22305f"/><text x="200" y="203" text-anchor="middle" fill="#fff" font-size="16">📦 асуулт 1</text>
  <rect x="95" y="229" width="210" height="44" rx="9" fill="#22305f"/><text x="200" y="257" text-anchor="middle" fill="#fff" font-size="16">📦 асуулт 2</text>
  <rect x="95" y="283" width="210" height="44" rx="9" fill="#22305f"/><text x="200" y="311" text-anchor="middle" fill="#fff" font-size="16">📦 асуулт 3</text>
  <text x="200" y="365" text-anchor="middle" fill="#7f88c4" font-size="16">3 асуулт — богино тоглоом</text>

  <!-- arrow -->
  <text x="450" y="260" text-anchor="middle" font-size="56">➡️</text>
  <text x="450" y="300" text-anchor="middle" fill="#ffd84d" font-size="16">AI-д "асуулт нэм"</text>
  <text x="450" y="322" text-anchor="middle" fill="#ffd84d" font-size="16">гэж хэлэхэд...</text>

  <!-- big data -->
  <rect x="560" y="90" width="280" height="320" rx="18" fill="#2a2150" stroke="#ffd84d" stroke-width="3"/>
  <text x="700" y="130" text-anchor="middle" fill="#ffe57a" font-size="20" font-weight="700">data.json — өнөөдөр</text>
  <rect x="595" y="150" width="210" height="34" rx="8" fill="#3a2f63"/><text x="700" y="173" text-anchor="middle" fill="#fff" font-size="14">📦 асуулт 1</text>
  <rect x="595" y="190" width="210" height="34" rx="8" fill="#3a2f63"/><text x="700" y="213" text-anchor="middle" fill="#fff" font-size="14">📦 асуулт 2</text>
  <rect x="595" y="230" width="210" height="34" rx="8" fill="#3a2f63"/><text x="700" y="253" text-anchor="middle" fill="#fff" font-size="14">📦 асуулт 3</text>
  <rect x="595" y="270" width="210" height="34" rx="8" fill="#3a2f63"/><text x="700" y="293" text-anchor="middle" fill="#fff" font-size="14">📦 ... 8</text>
  <rect x="595" y="310" width="210" height="34" rx="8" fill="#3a2f63"/><text x="700" y="333" text-anchor="middle" fill="#fff" font-size="14">📦 ... 10</text>
  <text x="700" y="385" text-anchor="middle" fill="#ffd84d" font-size="16" font-weight="700">10+ асуулт — урт тоглоом! 🎉</text>

  <text x="450" y="455" text-anchor="middle" fill="#9aa3d6" font-size="17">Кодоо огт өөрчлөхгүй — зөвхөн ДАТА-гаа баяжуулна</text>
</svg>
